<svg width="155" height="21" viewBox="0 0 111 15" xmlns="http://www.w3.org/2000/svg"><title>Shape + PAWS New England</title><g fill="#FFF" fill-rule="evenodd"><path d="M6.258 7.037c-1.468 0-2.874.682-3.78 3.43-.908 2.745 1.094 2.526 2.357 1.96 1.223-.55 1.688-.634 3.16.093 1.388.685 2.573-.03 2.08-1.53-.496-1.5-2.162-3.953-3.817-3.953zM3.48.85c-.835.207-1.278 1.388-.987 2.638.29 1.25 1.206 2.094 2.043 1.887l.01-.003c.838-.208 1.28-1.39.99-2.64-.126-.537-.367-1-.667-1.336-.4-.445-.9-.668-1.377-.55L3.48.85zM8.33.805c-.843-.183-1.73.69-1.98 1.948-.144.724-.047 1.418.222 1.912.198.366.49.622.85.7.002 0 .005 0 .008.002.842.183 1.728-.69 1.98-1.95C9.66 2.16 9.18.992 8.337.81l-.01-.002zM.24 7.3c.463 1.113 1.438 1.745 2.178 1.413.424-.19.68-.655.733-1.226.04-.427-.03-.913-.23-1.39C2.457 4.984 1.482 4.35.742 4.684.002 5.017-.223 6.188.24 7.3zm9.335 1.217c.422.192.92.07 1.357-.276.33-.26.623-.648.823-1.124.466-1.11.245-2.284-.493-2.62l-.01-.005c-.738-.336-1.714.29-2.18 1.402-.465 1.11-.244 2.283.494 2.62l.01.005z"/><text font-family="GoodDog" font-size="16" transform="translate(-1 -1)"><tspan x="17" y="13">PAWS New England</tspan></text></g></svg>