<svg xmlns="http://www.w3.org/2000/svg"><symbol id="chat" viewBox="0 0 32 32"><path stroke="#449FDB" d="M0 0"/><path d="M16 .502c-8.837 0-15.999 5.409-15.999 12.08 0 5.212 4.372 9.654 10.498 11.348.09.506.203 1.228.203 1.674 0 2.102-.804 4.095-2.237 5.893 2.215-.933 5.342-3.931 7.28-6.84l.256.005c8.838 0 16-5.409 16-12.081 0-6.671-7.163-12.08-16-12.08z"/></symbol><symbol id="email" viewBox="0 0 32 32"><path stroke="#449FDB" d="M0 0"/><path d="M20.351 16.574l11.649 8.035v-18.497zm-20.351-10.462v18.497l11.649-8.036zm16 14.369l-2.781-2.497-13.219 8.017h32l-13.219-8.017zm15.04-14.481h-30.08l15.04 11.308z"/></symbol><symbol id="facebook" viewBox="0 0 32 32"><path stroke="#449FDB" d="M0 0"/><path d="M26.667 0h-21.333c-2.933 0-5.334 2.4-5.334 5.334v21.332c0 2.936 2.4 5.334 5.334 5.334h21.333c2.934 0 5.333-2.398 5.333-5.334v-21.332c0-2.934-2.399-5.334-5.333-5.334zm.539 16h-5.206v14h-6v-14h-2.891v-4.58h2.891v-2.975c0-4.042 1.744-6.445 6.496-6.445h5.476v4.955h-4.473c-1.328-.002-1.492.692-1.492 1.985l-.007 2.48h6l-.794 4.58z"/></symbol><symbol id="filter" viewBox="0 0 32 32"><path stroke="#449FDB" d="M0 0"/><path d="M16 0c-8.837 0-16 2.239-16 5v3l12 12v10c0 1.105 1.791 2 4 2s4-.895 4-2v-10l12-12v-3c0-2.761-7.163-5-16-5zm-13.05 4.338c.748-.427 1.799-.832 3.04-1.171 2.748-.752 6.303-1.167 10.011-1.167s7.262.414 10.011 1.167c1.241.34 2.292.745 3.04 1.171.494.281.76.519.884.662-.124.142-.391.38-.884.662-.748.427-1.8.832-3.04 1.171-2.748.752-6.303 1.167-10.011 1.167s-7.262-.414-10.011-1.167c-1.24-.34-2.292-.745-3.04-1.171-.494-.282-.76-.519-.884-.662.124-.142.391-.38.884-.662z"/></symbol><symbol id="heart" viewBox="0 0 32 32"><path stroke="#449FDB" d="M0 0"/><path d="M23.6 2c-3.363 0-6.258 2.736-7.599 5.594-1.342-2.858-4.237-5.594-7.601-5.594-4.637 0-8.4 3.764-8.4 8.401 0 9.433 9.516 11.906 16.001 21.232 6.13-9.268 15.999-12.1 15.999-21.232 0-4.637-3.763-8.401-8.4-8.401z"/></symbol><symbol id="home" viewBox="0 0 32 32"><path stroke="#449FDB" d="M0 0"/><path d="M16 0l-16 12v6l4-3v15c0 1.1.9 2 2 2h20c1.1 0 2-.9 2-2v-15l4 3v-6l-16-12zm10 29.996l-.004.004h-5.996v-10h-8v10h-5.996l-.004-.004v-16.496l10-7.5 10 7.5v16.496z"/></symbol><symbol id="images" viewBox="0 0 32 32"><path stroke="#449FDB" d="M0 0"/><path d="M4 8v20h28v-20h-28zm26 16.667l-4-6.667-4.533 3.778-3.467-5.778-12 10v-16h24v14.667zm-22-9.667c0-1.657 1.343-3 3-3s3 1.343 3 3-1.343 3-3 3-3-1.343-3-3zm20-11h-28v20h2v-18h26z"/></symbol><symbol id="instagram" viewBox="0 0 32 32"><path stroke="#449FDB" d="M0 0"/><path d="M26.688 0h-21.375c-2.922 0-5.313 2.391-5.313 5.313v21.375c0 2.922 2.391 5.313 5.313 5.313h21.375c2.922 0 5.313-2.391 5.313-5.313v-21.375c0-2.922-2.391-5.313-5.313-5.313zm-16.444 14h11.513c.218.627.337 1.3.337 2 0 3.36-2.734 6.094-6.094 6.094s-6.094-2.734-6.094-6.094c0-.7.119-1.373.338-2zm17.756.002v11.998c0 1.1-.9 2-2 2h-20c-1.1 0-2-.9-2-2v-12h3.128c-.145.644-.222 1.313-.222 2 0 5.014 4.079 9.094 9.094 9.094s9.094-4.079 9.094-9.094c0-.687-.077-1.356-.222-2l3.128.002zm0-7.002c0 .55-.45 1-1 1h-2c-.55 0-1-.45-1-1v-2c0-.55.45-1 1-1h2c.55 0 1 .45 1 1v2z"/></symbol><symbol id="rss" viewBox="0 0 32 32"><path stroke="#449FDB" d="M0 0"/><path d="M26.667 0h-21.333c-2.934 0-5.334 2.4-5.334 5.334v21.332c0 2.935 2.4 5.334 5.334 5.334h21.333c2.934 0 5.333-2.398 5.333-5.334v-21.332c0-2.934-2.399-5.334-5.333-5.334zm-17.95 25.977c-1.499 0-2.717-1.209-2.717-2.707 0-1.49 1.218-2.713 2.717-2.713 1.505 0 2.721 1.223 2.721 2.713 0 1.498-1.216 2.707-2.721 2.707zm6.829.023c0-2.557-.994-4.963-2.796-6.764-1.804-1.805-4.199-2.801-6.747-2.801v-3.912c7.427 0 13.473 6.045 13.473 13.477h-3.93zm6.942 0c0-9.096-7.396-16.498-16.48-16.498v-3.914c11.25 0 20.405 9.16 20.405 20.412h-3.924z"/></symbol><symbol id="search" viewBox="0 0 32 32"><path stroke="#449FDB" d="M0 0"/><path d="M31.008 27.231l-7.58-6.447c-.784-.705-1.622-1.029-2.299-.998 1.789-2.096 2.87-4.815 2.87-7.787 0-6.627-5.373-12-12-12s-12 5.373-12 12 5.373 12 12 12c2.972 0 5.691-1.081 7.787-2.87-.031.677.293 1.515.998 2.299l6.447 7.58c1.104 1.226 2.907 1.33 4.007.23s.997-2.903-.23-4.007zm-19.008-7.231c-4.418 0-8-3.582-8-8s3.582-8 8-8 8 3.582 8 8-3.582 8-8 8z"/></symbol><symbol id="time" viewBox="0 0 32 32"><path stroke="#449FDB" d="M0 0"/><path d="M16 4c6.617 0 12 5.383 12 12s-5.383 12-12 12-12-5.383-12-12 5.383-12 12-12zm0-4c-8.836 0-16 7.164-16 16s7.164 16 16 16 16-7.164 16-16-7.164-16-16-16zm5.422 18.578l-3.422-3.426v-7.152h-4.023v7.992c0 .602.277 1.121.695 1.492l3.922 3.922 2.828-2.828z"/></symbol><symbol id="twitter" viewBox="0 0 32 32"><path stroke="#449FDB" d="M0 0"/><path d="M32 6.076c-1.177.522-2.443.875-3.771 1.034 1.355-.813 2.396-2.099 2.887-3.632-1.269.752-2.674 1.299-4.169 1.593-1.198-1.276-2.904-2.073-4.792-2.073-3.626 0-6.565 2.939-6.565 6.565 0 .515.058 1.016.17 1.496-5.456-.274-10.294-2.888-13.532-6.86-.565.97-.889 2.097-.889 3.301 0 2.278 1.159 4.287 2.921 5.465-1.076-.034-2.088-.329-2.974-.821l-.001.083c0 3.181 2.263 5.834 5.266 6.437-.551.15-1.131.23-1.73.23-.423 0-.834-.041-1.235-.118.835 2.608 3.26 4.506 6.133 4.559-2.247 1.761-5.078 2.81-8.154 2.81-.53 0-1.052-.031-1.566-.092 2.905 1.863 6.356 2.95 10.064 2.95 12.076 0 18.679-10.004 18.679-18.68 0-.285-.006-.568-.019-.849 1.283-.926 2.396-2.082 3.276-3.398z"/></symbol></svg>