<svg xmlns="http://www.w3.org/2000/svg"><symbol id="chat" viewBox="0 0 32 32"><path stroke="#449FDB" d="M0 0"/><path d="M16 .502c-8.837 0-15.999 5.409-15.999 12.08 0 5.212 4.372 9.654 10.498 11.348.09.506.203 1.228.203 1.674 0 2.102-.804 4.095-2.237 5.893 2.215-.933 5.342-3.931 7.28-6.84l.256.005c8.838 0 16-5.409 16-12.081 0-6.671-7.163-12.08-16-12.08z"/></symbol><symbol id="email" viewBox="0 0 32 32"><path stroke="#449FDB" d="M0 0"/><path d="M20.351 16.574l11.649 8.035v-18.497zm-20.351-10.462v18.497l11.649-8.036zm16 14.369l-2.781-2.497-13.219 8.017h32l-13.219-8.017zm15.04-14.481h-30.08l15.04 11.308z"/></symbol><symbol id="facebook" viewBox="0 0 32 32"><path stroke="#449FDB" d="M0 0"/><path d="M26.667 0h-21.333c-2.933 0-5.334 2.4-5.334 5.334v21.332c0 2.936 2.4 5.334 5.334 5.334h21.333c2.934 0 5.333-2.398 5.333-5.334v-21.332c0-2.934-2.399-5.334-5.333-5.334zm.539 16h-5.206v14h-6v-14h-2.891v-4.58h2.891v-2.975c0-4.042 1.744-6.445 6.496-6.445h5.476v4.955h-4.473c-1.328-.002-1.492.692-1.492 1.985l-.007 2.48h6l-.794 4.58z"/></symbol><symbol id="filter" viewBox="0 0 32 32"><path stroke="#449FDB" d="M0 0"/><path d="M16 0c-8.837 0-16 2.239-16 5v3l12 12v10c0 1.105 1.791 2 4 2s4-.895 4-2v-10l12-12v-3c0-2.761-7.163-5-16-5zm-13.05 4.338c.748-.427 1.799-.832 3.04-1.171 2.748-.752 6.303-1.167 10.011-1.167s7.262.414 10.011 1.167c1.241.34 2.292.745 3.04 1.171.494.281.76.519.884.662-.124.142-.391.38-.884.662-.748.427-1.8.832-3.04 1.171-2.748.752-6.303 1.167-10.011 1.167s-7.262-.414-10.011-1.167c-1.24-.34-2.292-.745-3.04-1.171-.494-.282-.76-.519-.884-.662.124-.142.391-.38.884-.662z"/></symbol><symbol id="heart" viewBox="0 0 32 32"><path stroke="#449FDB" d="M0 0"/><path d="M23.6 2c-3.363 0-6.258 2.736-7.599 5.594-1.342-2.858-4.237-5.594-7.601-5.594-4.637 0-8.4 3.764-8.4 8.401 0 9.433 9.516 11.906 16.001 21.232 6.13-9.268 15.999-12.1 15.999-21.232 0-4.637-3.763-8.401-8.4-8.401z"/></symbol><symbol id="home" viewBox="0 0 32 32"><path stroke="#449FDB" d="M0 0"/><path d="M16 0l-16 12v6l4-3v15c0 1.1.9 2 2 2h20c1.1 0 2-.9 2-2v-15l4 3v-6l-16-12zm10 29.996l-.004.004h-5.996v-10h-8v10h-5.996l-.004-.004v-16.496l10-7.5 10 7.5v16.496z"/></symbol><symbol id="images" viewBox="0 0 32 32"><path stroke="#449FDB" d="M0 0"/><path d="M4 8v20h28v-20h-28zm26 16.667l-4-6.667-4.533 3.778-3.467-5.778-12 10v-16h24v14.667zm-22-9.667c0-1.657 1.343-3 3-3s3 1.343 3 3-1.343 3-3 3-3-1.343-3-3zm20-11h-28v20h2v-18h26z"/></symbol><symbol id="instagram" viewBox="0 0 32 32"><path stroke="#449FDB" d="M0 0"/><path d="M26.688 0h-21.375c-2.922 0-5.313 2.391-5.313 5.313v21.375c0 2.922 2.391 5.313 5.313 5.313h21.375c2.922 0 5.313-2.391 5.313-5.313v-21.375c0-2.922-2.391-5.313-5.313-5.313zm-16.444 14h11.513c.218.627.337 1.3.337 2 0 3.36-2.734 6.094-6.094 6.094s-6.094-2.734-6.094-6.094c0-.7.119-1.373.338-2zm17.756.002v11.998c0 1.1-.9 2-2 2h-20c-1.1 0-2-.9-2-2v-12h3.128c-.145.644-.222 1.313-.222 2 0 5.014 4.079 9.094 9.094 9.094s9.094-4.079 9.094-9.094c0-.687-.077-1.356-.222-2l3.128.002zm0-7.002c0 .55-.45 1-1 1h-2c-.55 0-1-.45-1-1v-2c0-.55.45-1 1-1h2c.55 0 1 .45 1 1v2z"/></symbol><symbol id="logo" viewBox="0 0 7509 1024"><path d="M427.2 520.533c-56.534 0-106.4 16.533-149.6 49.6s-79.2 91.733-108 176c-13.867 36.267-19.2 65.067-16 86.4s10.133 37.333 20.8 48c10.667 10.667 25.333 16.533 44 17.6s37.333-.533 56-4.8c18.667-4.267 37.067-10.667 55.2-19.2 40.534-18.133 74.667-27.2 102.4-27.2s65.6 11.2 113.6 33.6c48 23.467 88 24.8 120 4s39.467-55.733 22.4-104.8c-20.267-57.6-55.733-115.2-106.4-172.8s-102.133-86.4-154.4-86.4zm-188.8-406.4c-28.8 6.4-49.867 26.666-63.2 60.8s-14.933 71.733-4.8 112.8c10.133 41.067 28.8 73.6 56 97.6s55.2 32.8 84 26.4c28.8-7.467 49.867-28 63.2-61.6s14.667-71.2 4-112.8c-8.533-35.2-23.467-64.533-44.8-88-29.867-32-61.333-43.733-94.4-35.2zm331.2-3.2c-28.8-6.4-56.533 2.933-83.2 28s-44.267 58.4-52.8 100c-9.6 48-4.267 90.133 16 126.4 13.867 25.6 33.067 40.533 57.6 44.8 28.8 6.4 56.533-2.933 83.2-28s44.267-58.133 52.8-99.2c8.533-41.067 5.6-78.4-8.8-112s-36-53.6-64.8-60zm-553.6 427.2c16 36.267 38.667 63.467 68 81.6s56.267 21.867 80.8 11.2c29.867-12.8 46.933-39.466 51.2-80 2.133-30.933-3.2-61.867-16-92.8-16-36.267-38.667-63.467-68-81.6s-56.533-21.6-81.6-10.4c-25.067 11.2-41.067 33.6-48 67.2s-2.4 68.533 13.6 104.8zm638.4 80c28.8 12.8 59.733 6.4 92.8-19.2 23.467-18.133 42.133-42.667 56-73.6 16-36.267 20.533-71.2 13.6-104.8s-22.667-55.733-47.2-66.4l-1.6-1.6c-24.533-10.667-51.467-6.933-80.8 11.2s-52 45.333-68 81.6c-16 36.267-20.533 71.2-13.6 104.8s22.667 56.267 47.2 68h1.6zm350.212-221.214c2.913-32.768 5.461-54.977 7.646-66.628 4.369-24.758 11.651-45.147 21.845-61.167-3.641-1.456-10.559-3.277-20.753-5.461s-17.112-4.369-20.753-6.554c-8.01-7.282-12.015-17.476-12.015-30.583 0-25.486 8.01-41.506 24.03-48.06 52.429-20.389 106.314-30.583 161.655-30.583 130.344 0 237.75 48.423 322.219 145.271.728 10.195 1.092 19.661 1.092 28.399 0 79.372-43.69 145.635-131.072 198.793-37.137 22.574-116.872 56.069-239.206 100.489-2.185 18.205-.364 42.234 5.461 72.09 6.554 33.496 9.83 56.434 9.83 68.813 0 10.195-1.092 19.661-3.277 28.399-5.097 16.02-15.11 29.491-30.037 40.414s-31.858 16.384-50.79 16.384c-7.282 0-14.564-.728-21.845-2.185l-24.03-25.122c-8.01-61.167-12.015-125.61-12.015-193.331 0-65.536 4.005-141.994 12.015-229.376zm114.688 20.207c-3.641 20.753-5.461 35.135-5.461 43.145 0 18.205 5.825 29.309 17.476 33.314s24.03 6.007 37.137 6.007c40.778 0 81.556-16.02 122.334-48.06s66.264-68.449 76.459-109.227c-85.197-64.08-154.009-96.119-206.438-96.119-13.835 0-27.671 1.82-41.506 5.461-.728 0 2.549 3.641 9.83 10.923 9.466 9.466 14.199 17.84 14.199 25.122 0 10.195-3.095 24.394-9.284 42.598s-9.284 32.04-9.284 41.506c0 9.466-1.82 24.576-5.461 45.329zm502.443-54.067c3.641-10.923 11.651-45.511 24.03-103.765 8.738-40.778 20.753-71.725 36.045-92.843 8.01-12.379 23.666-18.569 46.967-18.569 13.835 0 22.573 4.369 26.214 13.107 24.03 51.701 45.875 115.78 65.536 192.239 16.02 66.993 32.04 134.348 48.06 202.069 0 5.097 4.915 10.194 14.746 15.292s16.202 10.012 19.115 14.746c2.913 4.733 4.369 10.012 4.369 15.838s-1.456 10.194-4.369 13.107c-5.825 13.835-8.738 28.035-8.738 42.598 0 16.748 6.554 43.326 19.661 79.735 12.379 33.496 17.112 60.075 14.199 79.735-2.913 20.389-18.932 30.583-48.06 30.583-16.02 0-28.035-5.461-36.045-16.384-10.195-13.835-18.933-43.326-26.214-88.474-5.825-37.865-18.204-62.623-37.137-74.274-16.02-8.738-34.588-13.107-55.706-13.107-34.225 0-63.351 9.466-87.381 28.399-10.923 8.738-22.938 40.05-36.045 93.935-10.923 46.604-28.763 69.905-53.521 69.905-10.923 0-23.666-3.641-38.229-10.923-2.185-10.195-3.277-20.753-3.277-31.676 0-22.574 5.461-50.972 16.384-85.197 15.292-47.332 24.03-75.73 26.214-85.197 20.389-95.392 44.783-185.685 73.182-270.882zm60.075 98.304c-2.185 10.923-8.01 28.763-17.476 53.521-8.738 21.845-13.107 37.137-13.107 45.875s3.277 14.928 9.83 18.569c13.835 7.282 30.947 10.923 51.337 10.923 29.855 0 47.332-8.374 52.429-25.122 3.641-12.379 5.461-25.486 5.461-39.322 0-24.03-6.189-51.7-18.569-83.012-2.185-6.554-14.199-33.132-36.045-79.735-16.02 19.661-27.307 52.429-33.86 98.304zm368.093 321.127c-67.721-93.935-101.581-204.253-101.581-330.957 0-38.594 3.277-76.823 9.83-114.688 4.369-13.835 13.471-26.032 27.307-36.591s27.671-15.838 41.506-15.838c14.564 0 25.85 5.825 33.86 17.476 12.379 17.476 18.569 38.957 18.569 64.444 0 11.651-1.82 29.855-5.461 54.613s-5.461 43.327-5.461 55.706c0 13.107 1.456 25.486 4.369 37.137 5.097 24.758 9.83 49.88 14.199 75.366 6.554 28.399 17.112 50.972 31.676 67.721 19.661-21.845 39.504-58.618 59.529-110.319s38.047-87.381 54.067-107.042c18.933-23.302 38.593-34.953 58.982-34.953 24.758 0 49.88 17.84 75.366 53.521 19.661 28.399 36.045 62.259 49.152 101.581 0 5.825 3.095 13.653 9.284 23.484s10.741 13.289 13.653 10.377c25.486-31.312 38.229-71.361 38.229-120.149 0-16.748-1.82-42.416-5.461-77.005s-5.461-60.621-5.461-78.097c0-22.574 2.185-43.326 6.554-62.259 4.369-8.738 12.561-16.566 24.576-23.484s23.848-10.377 35.499-10.377c8.01 0 14.564 1.82 19.661 5.461 27.671 21.845 41.506 55.705 41.506 101.581 0 12.379-1.092 30.947-3.277 55.706s-3.277 42.962-3.277 54.613c0 69.177-15.292 143.451-45.875 222.822-10.195 18.933-16.384 30.948-18.569 36.045-8.738 13.835-17.84 24.394-27.307 31.676-16.748 13.835-33.132 20.753-49.152 20.753-34.953 0-66.264-27.67-93.935-83.012-26.215-53.157-49.152-93.207-68.813-120.149-10.923 15.292-28.035 47.695-51.337 97.212-21.845 45.147-41.506 77.551-58.982 97.212-25.486 29.127-55.341 43.691-89.566 43.691-10.923 0-22.209-1.092-33.86-3.277zm593.101-395.401c-9.466-10.923-19.115-22.027-28.945-33.314s-14.746-21.299-14.746-30.037c0-6.554 2.913-13.107 8.738-19.661 40.05-50.245 100.124-86.653 180.224-109.227 71.362-15.292 142.358-30.583 212.992-45.875 4.369-.728 8.738-1.092 13.107-1.092 13.835 0 27.489 4.915 40.96 14.746s20.207 21.299 20.207 34.406c0 23.302-16.748 38.957-50.244 46.967-23.302 8.738-65.9 17.476-127.795 26.214-53.157 7.282-93.935 18.568-122.334 33.86-13.107 7.282-19.661 14.928-19.661 22.938 0 2.185.364 4.369 1.092 6.554 21.117 32.04 58.618 67.72 112.503 107.042 67.721 48.788 108.498 80.099 122.334 93.935 38.594 37.865 57.89 77.551 57.89 119.057 0 13.835-2.185 28.399-6.554 43.691-13.107 49.516-44.419 87.745-93.935 114.688-45.147 24.03-97.94 36.045-158.379 36.045-56.07 0-107.042-10.558-152.917-31.676-21.117-9.466-31.676-24.758-31.676-45.875 0-16.02 6.007-32.222 18.022-48.606s26.396-28.581 43.145-36.591c10.923-2.185 20.753 3.277 29.491 16.384 9.466 15.292 17.476 24.03 24.03 26.214 16.02 0 40.05 4.005 72.09 12.015 11.651 5.825 24.03 8.738 37.137 8.738 13.835 0 29.855-4.005 48.06-12.015 15.292-7.282 30.583-14.199 45.875-20.753 13.107-10.195 19.661-23.666 19.661-40.414 0-10.195-2.549-20.753-7.646-31.676-27.671-35.681-76.276-78.279-145.818-127.795s-118.511-92.478-146.91-128.887zm668.467 389.939c-5.825-7.282-8.738-14.928-8.738-22.938 4.369-35.681 8.738-108.862 13.107-219.546 3.641-90.294 11.287-163.476 22.938-219.546 2.185-10.195 13.107-15.292 32.768-15.292 18.205 0 30.948 3.641 38.229 10.923 22.574 29.855 45.875 79.917 69.905 150.187s47.331 120.331 69.905 150.187c5.097-13.835 8.374-28.763 9.83-44.783.728-11.651.728-26.578 0-44.783-.728-24.758-1.092-39.686-1.092-44.783 0-24.758-5.643-61.895-16.93-111.411s-16.93-86.653-16.93-111.411c0-11.651.728-22.573 2.185-32.768 2.913-17.476 17.84-26.214 44.783-26.214 19.661 0 31.676 5.825 36.045 17.476 18.933 49.516 30.948 108.134 36.045 175.855 2.913 33.496 4.369 94.299 4.369 182.409 0 75.003-14.927 127.431-44.783 157.286-10.195 12.379-25.122 18.569-44.783 18.569-16.02 0-28.035-4.733-36.045-14.199-18.205-21.117-37.137-49.516-56.798-85.197-15.292-29.855-30.583-59.71-45.875-89.566-8.738 21.845-13.107 48.424-13.107 79.735 0 8.01.364 19.843 1.092 35.499s1.092 27.489 1.092 35.499c0 24.758-2.367 45.693-7.1 62.805s-19.479 25.668-44.237 25.668c-18.933 0-34.224-6.554-45.875-19.661zm360.448-238.114c-.728-49.516 13.835-90.84 43.691-123.972s68.084-49.698 114.688-49.698c49.516 0 93.389 18.75 131.618 56.252s56.98 81.374 56.252 131.618c-6.554 20.389-33.86 44.783-81.92 73.182-59.711 35.681-92.843 56.798-99.396 63.351-12.379 5.825-18.569 12.015-18.569 18.569 0 11.651 8.01 22.027 24.03 31.13s30.219 13.653 42.598 13.653c24.03 0 58.618-11.651 103.765-34.953 13.835 10.195 20.753 24.03 20.753 41.506 0 13.835-4.369 26.578-13.107 38.229s-20.025 18.569-33.86 20.753c-46.604 7.282-76.095 10.923-88.474 10.923-24.758 0-46.967-4.369-66.628-13.107-86.654-38.594-131.8-131.071-135.441-277.436zm119.058 55.706c64.808-2.913 104.129-25.85 117.965-68.813 2.913-5.825 4.369-11.651 4.369-17.476 0-15.292-8.01-27.671-24.03-37.137s-33.86-14.199-53.521-14.199c-14.564 0-26.943 2.913-37.137 8.738-21.117 10.923-31.676 33.86-31.676 68.813 0 38.594 8.01 58.618 24.03 60.075zm349.525-229.376c18.205 22.574 25.486 59.346 21.845 110.319-4.369 63.352-4.369 103.765 0 121.242 4.369 21.845 8.738 43.326 13.107 64.444 5.825 25.486 14.199 45.511 25.122 60.075 4.369 5.097 8.738 7.646 13.107 7.646 7.282 0 15.11-6.189 23.484-18.569s20.935-37.501 37.683-75.366c13.835-30.584 28.399-53.521 43.691-68.813s29.127-22.938 41.506-22.938c11.651 0 24.576 6.554 38.775 19.661s31.858 41.87 52.975 86.289c18.933 39.322 38.593 65.536 58.982 78.643 1.456.728 2.913 1.092 4.369 1.092 7.282 0 16.02-8.738 26.214-26.214 19.661-33.496 29.491-76.458 29.491-128.887v-34.953c-.728-16.02-1.092-27.671-1.092-34.953 0-28.399 2.913-52.065 8.738-70.997 5.097-16.02 18.568-24.03 40.414-24.03 34.953 0 54.613 17.476 58.982 52.429 3.641 37.137 5.461 69.905 5.461 98.304 0 114.324-34.952 195.151-104.858 242.483-25.486 16.748-52.065 25.122-79.735 25.122-18.933 0-37.865-4.369-56.798-13.107-16.02-7.282-33.314-25.486-51.883-54.613s-30.037-44.055-34.406-44.783c-5.097-.728-17.112 14.563-36.045 45.875-22.574 34.953-41.506 56.798-56.798 65.536-24.03 13.835-49.88 20.753-77.551 20.753-29.855 0-51.701-8.738-65.536-26.214-54.614-71.362-81.92-167.116-81.92-287.266 0-37.137 2.549-84.104 7.646-140.902 2.913-30.584 20.753-45.875 53.521-45.875 17.476 0 31.312 6.189 41.506 18.569zm786.432 65.536c0-10.923-2.185-28.399-6.554-52.429s-6.554-41.506-6.554-52.429c0-18.933 4.369-34.588 13.107-46.967 34.953-50.245 87.745-75.366 158.379-75.366 52.429 0 98.668 15.292 138.718 45.875 5.097 3.641 7.646 9.102 7.646 16.384 0 8.01-4.187 16.02-12.561 24.03s-18.386 13.107-30.037 15.292c-13.107 1.456-30.947-.728-53.521-6.554-24.758-6.554-42.234-9.83-52.429-9.83-10.923 0-21.117 1.82-30.583 5.461-19.661 8.738-29.491 27.307-29.491 55.706 0 6.554.728 17.294 2.185 32.222s2.185 26.032 2.185 33.314c0 14.564-1.82 26.214-5.461 34.953 14.564 8.01 33.132 12.015 55.706 12.015 7.282 0 18.022-.546 32.222-1.638s24.576-1.638 31.13-1.638c39.322 0 65.172 15.656 77.551 46.967-14.564 26.215-44.419 39.686-89.566 40.414-49.516.728-80.464 7.828-92.843 21.299s-18.569 35.499-18.569 66.082c0-9.466 3.277 25.122 9.83 103.765 8.738 2.185 17.84 3.277 27.307 3.277 26.943 0 60.439-8.374 100.489-25.122 54.614-22.574 87.745-35.317 99.396-38.229 2.913-3.641 9.466-.364 19.661 9.83 2.185 7.282 3.277 14.564 3.277 21.845 0 26.943-12.743 45.147-38.229 54.613-39.322 14.564-78.279 29.491-116.873 44.783-44.419 15.292-84.468 22.209-120.149 20.753-13.835-1.456-27.671-2.731-41.506-3.823s-21.845-6.736-24.03-16.93c-7.282-21.845-10.923-48.06-10.923-78.643 0-10.195.546-25.668 1.638-46.421s1.638-36.591 1.638-47.514c0-26.215-2.549-49.152-7.646-68.813-.728-2.913-4.369-9.83-10.923-20.753-5.825-8.738-8.738-16.02-8.738-21.845 0-5.097 1.456-9.466 4.369-13.107l15.292-15.292c3.641-6.554 5.461-28.399 5.461-65.536zm398.677 179.131c0-11.651-.91-30.219-2.731-55.706s-2.731-44.419-2.731-56.798c0-27.671 3.277-50.244 9.83-67.721 6.554-15.292 20.389-22.938 41.506-22.938 24.03 0 38.957 9.466 44.783 28.399 1.456 4.369 2.185 9.466 2.185 15.292 0 7.282-2.002 18.386-6.007 33.314s-6.007 26.396-6.007 34.406c6.554 5.825 9.83 10.194 9.83 13.107 24.758-40.778 41.142-65.536 49.152-74.274 20.389-24.03 43.326-36.045 68.813-36.045 9.466 0 19.297 1.456 29.491 4.369 25.486 42.235 42.234 95.027 50.244 158.379 2.185 18.205 5.461 74.638 9.83 169.301 8.01 32.04 3.277 50.608-14.199 55.706-19.661 5.825-34.952 8.738-45.875 8.738-16.748 0-26.214-6.189-28.399-18.569-3.641-27.671-6.918-72.817-9.83-135.441-2.185-56.798-6.554-100.852-13.107-132.164-20.389 22.574-39.322 57.162-56.798 103.765-22.574 58.255-38.593 95.573-48.06 111.957s-23.666 24.576-42.598 24.576c-19.661 0-32.404-11.287-38.229-33.86-3.641-16.02-5.097-37.137-4.369-63.351 2.185-47.332 3.277-68.813 3.277-64.444zm419.431-227.191c57.526-48.788 117.6-73.182 180.224-73.182 29.127 0 56.07 6.554 80.828 19.661 17.476 8.738 24.758 19.661 21.845 32.768-28.399 58.983-42.598 129.251-42.598 210.807 0 34.225 3.823 85.014 11.469 152.371s11.469 118.147 11.469 152.371c0 55.342-17.112 92.843-51.337 112.503-23.302 13.107-49.516 19.661-78.643 19.661-37.137 0-71.361-10.194-102.673-30.583s-52.793-47.331-64.444-80.828c-1.456-4.369-2.185-8.374-2.185-12.015 0-10.923 4.733-20.207 14.199-27.853s20.025-11.469 31.676-11.469c10.195 0 17.84 3.277 22.938 9.83 2.913 2.913 14.199 16.02 33.86 39.322 13.835 16.748 26.214 28.763 37.137 36.045 16.02 10.195 32.768 14.199 50.244 12.015 4.369-2.185 11.287-12.015 20.753-29.491 4.369-26.215 6.554-53.885 6.554-83.012 0-42.963-8.01-109.59-24.03-199.885 0-.728.728-4.187 2.185-10.377s2.185-10.741 2.185-13.653c0-8.01-4.005-9.466-12.015-4.369-32.04 18.933-60.803 28.399-86.289 28.399-13.107 0-25.85-2.549-38.229-7.646-21.845-8.738-42.598-30.947-62.259-66.628-9.466-22.574-14.199-44.783-14.199-66.628 0-42.963 17.112-79.007 51.337-108.134zm37.137 108.134c6.554 50.245 20.389 75.366 41.506 75.366 17.476 1.456 32.404-8.738 44.783-30.583 10.195-20.389 20.389-40.778 30.583-61.167 7.282-13.835 10.923-30.583 10.923-50.244 0-13.835-2.367-24.576-7.1-32.222s-11.833-11.469-21.299-11.469c-18.933 0-41.324 10.741-67.174 32.222s-36.591 47.513-32.222 78.097zm308.019-45.875c.728-21.845-2.549-54.431-9.83-97.758s-10.923-74.456-10.923-93.389c0-26.943 5.097-50.608 15.292-70.997 11.651-23.302 31.676-34.953 60.075-34.953 29.127 0 44.783 15.292 46.967 45.875.728 4.369 0 12.015-2.185 22.938s-3.277 17.84-3.277 20.753v233.745c-1.456 25.486-1.092 59.346 1.092 101.581 2.913 50.245 4.369 83.376 4.369 99.396 0 58.983-9.102 108.134-27.307 147.456-8.01 18.205-22.573 27.307-43.691 27.307-13.835 0-27.489-3.823-40.96-11.469s-20.207-21.663-20.207-42.052c0-5.825 1.092-11.651 3.277-17.476 13.107-45.147 20.753-99.76 22.938-163.84 1.456-56.07 2.913-111.775 4.369-167.117zm417.246 400.862c-5.825-10.195-11.287-15.292-16.384-15.292-38.594-6.554-77.551-13.107-116.873-19.661-42.963-10.923-73.546-32.04-91.75-63.351-11.651-15.292-17.476-35.681-17.476-61.167 0-37.137 9.102-67.72 27.307-91.75 43.691-58.983 107.77-88.474 192.239-88.474 36.409 0 53.885 1.092 52.429 3.277 5.825-8.738 8.738-21.117 8.738-37.137 0-18.933-5.461-29.673-16.384-32.222s-21.845-3.823-32.768-3.823c-18.933 0-39.868 4.551-62.805 13.653s-45.329 17.658-67.174 25.668c-3.641 1.456-6.918 2.185-9.83 2.185-11.651 0-21.117-8.374-28.399-25.122-5.825-13.107-8.738-27.307-8.738-42.598 0-9.466 1.092-15.292 3.277-17.476 48.06-32.768 102.309-49.152 162.748-49.152 63.352 0 105.95 22.573 127.795 67.721 11.651 24.758 17.476 51.7 17.476 80.828 0 24.03-4.733 57.89-14.199 101.581-10.923 48.06-17.476 83.012-19.661 104.858-3.641 54.614-7.282 91.75-10.923 111.411-8.738 44.419-22.573 66.628-41.506 66.628-5.825 0-11.833-2.002-18.022-6.007s-12.561-12.197-19.115-24.576zm-1.093-108.134c2.185-10.195 6.918-28.399 14.199-54.613 6.554-20.389 9.83-37.137 9.83-50.244 0-15.292-3.277-30.583-9.83-45.875-37.137 8.01-73.91 15.656-110.319 22.938-42.963 12.379-64.808 37.865-65.536 76.459-.728 16.748 15.292 30.947 48.06 42.598 28.399 10.923 56.798 16.384 85.197 16.384 16.748 0 26.214-2.549 28.399-7.646zm172.579-127.796c0-11.651-.91-30.219-2.731-55.706s-2.731-44.419-2.731-56.798c0-27.671 3.277-50.244 9.83-67.721 6.554-15.292 20.389-22.938 41.506-22.938 24.03 0 38.957 9.466 44.783 28.399 1.456 4.369 2.185 9.466 2.185 15.292 0 7.282-2.002 18.386-6.007 33.314s-6.007 26.396-6.007 34.406c6.554 5.825 9.83 10.194 9.83 13.107 24.758-40.778 41.142-65.536 49.152-74.274 20.389-24.03 43.326-36.045 68.813-36.045 9.466 0 19.297 1.456 29.491 4.369 25.486 42.235 42.234 95.027 50.244 158.379 2.185 18.205 5.461 74.638 9.83 169.301 8.01 32.04 3.277 50.608-14.199 55.706-19.661 5.825-34.952 8.738-45.875 8.738-16.748 0-26.214-6.189-28.399-18.569-3.641-27.671-6.918-72.817-9.83-135.441-2.185-56.798-6.554-100.852-13.107-132.164-20.389 22.574-39.322 57.162-56.798 103.765-22.574 58.255-38.593 95.573-48.06 111.957s-23.666 24.576-42.598 24.576c-19.661 0-32.404-11.287-38.229-33.86-3.641-16.02-5.097-37.137-4.369-63.351 2.185-47.332 3.277-68.813 3.277-64.444zm360.448-7.645c0-40.05 15.656-74.638 46.967-103.765 19.661-18.205 54.431-39.504 104.311-63.898s83.558-43.509 101.035-57.344c9.466-8.01 16.02-25.486 19.661-52.429 3.641-33.496 7.646-54.613 12.015-63.351 15.292-26.215 34.588-39.322 57.89-39.322 5.097 0 10.194.728 15.292 2.185 25.486 10.923 36.045 25.122 31.676 42.598-32.768 89.566-49.152 189.69-49.152 300.373 0 75.003 7.646 156.922 22.938 245.76 0 5.097-5.097 10.741-15.292 16.93s-19.297 9.284-27.307 9.284c-17.476 1.456-32.404-9.284-44.783-32.222s-21.845-35.135-28.399-36.591c-6.554 0-16.384.546-29.491 1.638s-22.573 1.638-28.399 1.638c-26.943 0-49.516-6.189-67.721-18.569-41.506-27.671-68.449-47.696-80.828-60.075-26.943-26.943-40.414-57.89-40.414-92.843zm110.319-15.292c3.641 22.574 15.292 42.962 34.953 61.167s41.142 27.307 64.444 27.307c8.738 0 17.476-1.456 26.214-4.369-1.456-11.651-2.185-24.03-2.185-37.137 0-16.02 2.185-40.232 6.554-72.636s6.554-56.98 6.554-73.728c-34.953 0-66.264 8.01-93.935 24.03-33.496 18.933-47.696 44.055-42.598 75.366z"/></symbol><symbol id="rss" viewBox="0 0 32 32"><path stroke="#449FDB" d="M0 0"/><path d="M26.667 0h-21.333c-2.934 0-5.334 2.4-5.334 5.334v21.332c0 2.935 2.4 5.334 5.334 5.334h21.333c2.934 0 5.333-2.398 5.333-5.334v-21.332c0-2.934-2.399-5.334-5.333-5.334zm-17.95 25.977c-1.499 0-2.717-1.209-2.717-2.707 0-1.49 1.218-2.713 2.717-2.713 1.505 0 2.721 1.223 2.721 2.713 0 1.498-1.216 2.707-2.721 2.707zm6.829.023c0-2.557-.994-4.963-2.796-6.764-1.804-1.805-4.199-2.801-6.747-2.801v-3.912c7.427 0 13.473 6.045 13.473 13.477h-3.93zm6.942 0c0-9.096-7.396-16.498-16.48-16.498v-3.914c11.25 0 20.405 9.16 20.405 20.412h-3.924z"/></symbol><symbol id="search" viewBox="0 0 32 32"><path stroke="#449FDB" d="M0 0"/><path d="M31.008 27.231l-7.58-6.447c-.784-.705-1.622-1.029-2.299-.998 1.789-2.096 2.87-4.815 2.87-7.787 0-6.627-5.373-12-12-12s-12 5.373-12 12 5.373 12 12 12c2.972 0 5.691-1.081 7.787-2.87-.031.677.293 1.515.998 2.299l6.447 7.58c1.104 1.226 2.907 1.33 4.007.23s.997-2.903-.23-4.007zm-19.008-7.231c-4.418 0-8-3.582-8-8s3.582-8 8-8 8 3.582 8 8-3.582 8-8 8z"/></symbol><symbol id="time" viewBox="0 0 32 32"><path stroke="#449FDB" d="M0 0"/><path d="M16 4c6.617 0 12 5.383 12 12s-5.383 12-12 12-12-5.383-12-12 5.383-12 12-12zm0-4c-8.836 0-16 7.164-16 16s7.164 16 16 16 16-7.164 16-16-7.164-16-16-16zm5.422 18.578l-3.422-3.426v-7.152h-4.023v7.992c0 .602.277 1.121.695 1.492l3.922 3.922 2.828-2.828z"/></symbol><symbol id="twitter" viewBox="0 0 32 32"><path stroke="#449FDB" d="M0 0"/><path d="M32 6.076c-1.177.522-2.443.875-3.771 1.034 1.355-.813 2.396-2.099 2.887-3.632-1.269.752-2.674 1.299-4.169 1.593-1.198-1.276-2.904-2.073-4.792-2.073-3.626 0-6.565 2.939-6.565 6.565 0 .515.058 1.016.17 1.496-5.456-.274-10.294-2.888-13.532-6.86-.565.97-.889 2.097-.889 3.301 0 2.278 1.159 4.287 2.921 5.465-1.076-.034-2.088-.329-2.974-.821l-.001.083c0 3.181 2.263 5.834 5.266 6.437-.551.15-1.131.23-1.73.23-.423 0-.834-.041-1.235-.118.835 2.608 3.26 4.506 6.133 4.559-2.247 1.761-5.078 2.81-8.154 2.81-.53 0-1.052-.031-1.566-.092 2.905 1.863 6.356 2.95 10.064 2.95 12.076 0 18.679-10.004 18.679-18.68 0-.285-.006-.568-.019-.849 1.283-.926 2.396-2.082 3.276-3.398z"/></symbol></svg>