<?xml version="1.0" encoding="UTF-8" standalone="no"?>
<svg width="155" height="21" viewBox="0 0 111 15" version="1.1" xmlns="http://www.w3.org/2000/svg" xmlns:xlink="http://www.w3.org/1999/xlink" xmlns:sketch="http://www.bohemiancoding.com/sketch/ns">
    <!-- Generator: Sketch 3.4.4 (17249) - http://www.bohemiancoding.com/sketch -->
    <title>Shape + PAWS New England</title>
    <desc>Created with Sketch.</desc>
    <defs></defs>
    <g id="Page-1" stroke="none" stroke-width="1" fill="none" fill-rule="evenodd" sketch:type="MSPage">
        <g id="Shape-+-PAWS-New-England" sketch:type="MSLayerGroup" transform="translate(-1.000000, -1.000000)" fill="#FFFFFF">
            <path d="M7.25796547,8.03713125 C5.78995284,8.03713125 4.38440883,8.71946092 3.47736443,11.4659158 C2.57032003,14.2123706 4.5718147,13.9934955 5.83493024,13.4259259 C7.057816,12.8765311 7.52333218,12.7926679 8.9963423,13.5201747 C10.3831457,14.2051007 11.5683004,13.4903163 11.0737988,11.989866 C10.5792972,10.4894158 8.91338397,8.03687161 7.25796547,8.03687161 L7.25796547,8.03713125 Z M4.48136013,1.8491696 C3.64453046,2.0568803 3.20225261,3.2384946 3.49335639,4.48813415 C3.78446018,5.7377737 4.69875094,6.58237737 5.5355806,6.37466666 C5.53932872,6.37362811 5.54332671,6.37258955 5.54707483,6.37181064 C6.3839045,6.16409993 6.82618235,4.98248564 6.53507857,3.73284608 C6.40989145,3.19487535 6.16901244,2.73194011 5.8686633,2.39596804 C5.47136286,1.95120748 4.96961488,1.72817811 4.49285436,1.84631357 C4.48910624,1.84735213 4.48510825,1.84813104 4.48136013,1.8491696 L4.48136013,1.8491696 Z M9.32867537,1.80580998 C8.48659834,1.62276492 7.60054339,2.4951499 7.34991928,3.75439607 C7.2057417,4.47800825 7.30294288,5.17202166 7.57155795,5.66611351 C7.77020817,6.03168435 8.0628112,6.28794744 8.42088135,6.36557932 C8.42387984,6.36635823 8.42687833,6.36687751 8.42987683,6.36765643 C9.27195386,6.55070149 10.1580088,5.67831651 10.4086329,4.41907034 C10.659257,3.15982417 10.1799978,1.99067252 9.33767085,1.80762745 C9.33467236,1.80684854 9.33167386,1.80632926 9.32867537,1.80580998 L9.32867537,1.80580998 Z M1.24048799,8.30144312 C1.70325555,9.41321469 2.67826581,10.0454342 3.41839405,9.71309703 C3.84193131,9.52304173 4.09680329,9.05828902 4.1505263,8.48734421 C4.1907561,8.0604987 4.11854237,7.57393637 3.92064177,7.09827884 C3.9203919,7.09775957 3.92014202,7.09698065 3.91989215,7.09646137 C3.45712459,5.98468981 2.48211433,5.35247034 1.74198609,5.68480747 C1.00185785,6.0171446 0.77697081,7.18759445 1.23973837,8.29962565 C1.23998824,8.30014493 1.24023812,8.30092385 1.24048799,8.30144312 L1.24048799,8.30144312 Z M10.5752992,9.51681041 C10.9965876,9.70894281 11.4950872,9.58717241 11.9323676,9.2408148 C12.2612024,8.98013786 12.5553047,8.59249775 12.7552043,8.11554204 C13.2209703,7.00506866 12.9998314,5.8317628 12.2617021,5.49501181 C12.2584538,5.49345398 12.2552054,5.49215579 12.2522069,5.49059796 C11.5138278,5.15384697 10.5380679,5.78113331 10.0723019,6.89160669 C9.6065358,8.00208006 9.82767473,9.17538593 10.565804,9.51213692 C10.5690523,9.51369475 10.5723007,9.51499294 10.5752992,9.51655077 L10.5752992,9.51681041 Z" id="Shape" sketch:type="MSShapeGroup"></path>
            <text id="PAWS-New-England" sketch:type="MSTextLayer" font-family="GoodDog" font-size="16" font-weight="normal">
                <tspan x="17" y="13">PAWS New England</tspan>
            </text>
        </g>
    </g>
</svg>